HIERARCHY
ROOT Hips
{
	OFFSET 0.000000 0.000000 0.000000
	CHANNELS 6 Xposition Yposition Zposition Zrotation Yrotation Xrotation 
	JOINT LHipJoint
	{
		OFFSET 0.000000 0.000000 0.000000
		CHANNELS 3 Zrotation Yrotation Xrotation
		JOINT LeftUpLeg
		{
			OFFSET 1.363060 -1.794630 0.839290
			CHANNELS 3 Zrotation Yrotation Xrotation
			JOINT LeftLeg
			{
				OFFSET 2.448110 -6.726130 0.000000
				CHANNELS 3 Zrotation Yrotation Xrotation
				JOINT LeftFoot
				{
					OFFSET 2.562200 -7.039590 0.000000
					CHANNELS 3 Zrotation Yrotation Xrotation
					JOINT LeftToeBase
					{
						OFFSET 0.157640 -0.433110 2.322550
						CHANNELS 3 Zrotation Yrotation Xrotation
						End Site
						{
							OFFSET 0.000000 0.000000 0.000000
						}
					}
				}
			}
		}
	}
	JOINT RHipJoint
	{
		OFFSET 0.000000 0.000000 0.000000
		CHANNELS 3 Zrotation Yrotation Xrotation
		JOINT RightUpLeg
		{
			OFFSET -1.305520 -1.794630 0.839290
			CHANNELS 3 Zrotation Yrotation Xrotation
			JOINT RightLeg
			{
				OFFSET -2.542530 -6.985550 0.000000
				CHANNELS 3 Zrotation Yrotation Xrotation
				JOINT RightFoot
				{
					OFFSET -2.568260 -7.056230 0.000000
					CHANNELS 3 Zrotation Yrotation Xrotation
					JOINT RightToeBase
					{
						OFFSET -0.164730 -0.452590 2.363150
						CHANNELS 3 Zrotation Yrotation Xrotation
						End Site
						{
							OFFSET 0.000000 0.000000 0.000000
						}
					}
				}
			}
		}
	}
}
MOTION
Frames: 19
Frame Time: 0.008333
-3.366477 15.588831 -0.609539 -157.536065 87.198108 -127.123955 -12.363079 -0.517163 -4.342651 -3.561333 4.380913 -30.438400 -1.064884 3.413376 56.304372 2.330174 12.008461 -20.985714 -2.910700 -0.000000 -61.995401 7.225779 2.183176 -0.277205 7.057782 2.076827 -71.820296 2.034589 -4.408853 44.019269 0.678602 4.731196 1.238378 0.533700 -0.000000 -61.032100
-3.231702 15.560299 -0.581694 -156.737452 87.081580 -126.422231 -12.489867 -0.483043 -4.337828 -3.137781 4.571585 -30.157961 -0.992707 3.479143 56.751900 2.277761 11.950942 -20.313325 -2.740900 -0.000001 -62.762300 7.184092 2.180270 -0.520827 7.651953 1.765289 -72.000234 1.952152 -4.591323 45.810455 0.695112 4.963720 0.635288 0.551200 0.000000 -58.770700
-3.097741 15.534024 -0.554804 -155.695037 86.966404 -125.460220 -12.620784 -0.458210 -4.334557 -2.703048 4.792276 -29.913006 -0.918837 3.542966 57.187721 2.226188 11.888783 -19.600754 -2.563900 -0.000000 -63.360200 7.130323 2.155299 -0.744193 8.268895 1.496016 -72.130815 1.890268 -4.750887 47.469966 0.691877 5.106118 -0.235277 0.528600 -0.000000 -56.247500
-2.964533 15.509830 -0.528260 -154.603308 86.852700 -124.431512 -12.748414 -0.439372 -4.332143 -2.271999 5.030377 -29.698405 -0.844142 3.603161 57.605340 2.177748 11.831636 -18.857386 -2.384200 -0.000000 -63.831600 7.072639 2.114673 -0.942703 8.873579 1.276245 -72.210798 1.844506 -4.888503 48.991636 0.673598 5.183462 -1.302040 0.478301 -0.000000 -53.574200
-2.831969 15.487488 -0.501738 -153.587644 86.735056 -123.462544 -12.868824 -0.424371 -4.328659 -1.849623 5.272513 -29.509653 -0.768585 3.659044 58.002497 2.133762 11.786433 -18.085479 -2.203700 0.000000 -64.248900 7.016323 2.063830 -1.115046 9.443966 1.109169 -72.239859 1.809653 -5.005754 50.381284 0.643572 5.213676 -2.488109 0.412300 -0.000000 -50.864499
-2.700139 15.466823 -0.474629 -152.817928 86.616343 -122.721532 -12.974286 -0.409018 -4.323276 -1.454126 5.500508 -29.343709 -0.692315 3.709501 58.375791 2.096503 11.766323 -17.285080 -2.024100 -0.000000 -64.690899 6.969723 2.012436 -1.257971 9.943935 0.999312 -72.224165 1.778388 -5.103326 51.644184 0.603365 5.202280 -3.715072 0.339800 0.000000 -48.261101
-2.569146 15.447758 -0.446774 -152.385633 86.493794 -122.299840 -13.061778 -0.391212 -4.314220 -1.091965 5.698189 -29.199472 -0.614528 3.754388 58.725625 2.067249 11.780860 -16.447676 -1.844200 0.000000 -65.238300 6.936951 1.967218 -1.371911 10.355466 0.947123 -72.170534 1.743999 -5.182711 52.794583 0.553617 5.145650 -4.913977 0.267700 -0.000000 -45.900100
-2.439139 15.430211 -0.418109 -152.361056 86.365157 -122.267226 -13.129104 -0.369431 -4.299908 -0.769545 5.849565 -29.077404 -0.534147 3.793634 59.053936 2.047275 11.839735 -15.561694 -1.661500 -0.000000 -65.947800 6.921028 1.934220 -1.458238 10.664454 0.950522 -72.087384 1.700456 -5.245478 53.848044 0.493992 5.032397 -6.031678 0.200700 -0.000000 -43.903300
-2.310420 15.414280 -0.388697 -152.784598 86.226623 -122.664484 -13.175503 -0.343350 -4.279167 -0.490591 5.941232 -28.979377 -0.449904 3.827338 59.364577 2.037780 11.951833 -14.614054 -1.472100 -0.000001 -66.834300 6.923177 1.917607 -1.519995 10.865650 1.003905 -71.982887 1.643611 -5.293506 54.820430 0.423657 4.848720 -7.035858 0.141700 -0.000001 -42.350600
-2.183228 15.400107 -0.358790 -153.664566 86.072802 -123.500249 -13.201538 -0.313711 -4.251076 -0.255904 5.963279 -28.907808 -0.360681 3.855555 59.662645 2.039739 12.123701 -13.593542 -1.271900 0.000000 -67.858800 6.942985 1.919144 -1.561403 10.962364 1.098272 -71.863250 1.571825 -5.328908 55.726189 0.341532 4.582766 -7.917249 0.092400 -0.000000 -41.263200
-2.057989 15.387949 -0.328748 -154.972232 85.896660 -124.747904 -13.208988 -0.282630 -4.215432 -0.063708 5.910132 -28.865687 -0.265740 3.878356 59.954213 2.054189 12.360912 -12.494973 -1.056700 0.000001 -68.924400 6.978338 1.938341 -1.587562 10.964539 1.221910 -71.731163 1.486119 -5.353660 56.573882 0.246462 4.226550 -8.684336 0.053501 0.000000 -40.629000
-1.934967 15.378018 -0.299022 -156.647159 85.689555 -126.350352 -13.200802 -0.252897 -4.172846 0.091003 5.783130 -28.854764 -0.164842 3.895996 60.246752 2.081683 12.665416 -11.317564 -0.822400 -0.000000 -69.889500 7.025959 1.972490 -1.605388 10.891613 1.357815 -71.586424 1.390406 -5.370601 57.374443 0.138052 3.783480 -9.370939 0.024800 0.000000 -40.294600
-1.814471 15.370587 -0.269989 -158.604894 85.444663 -128.226443 -13.180314 -0.227714 -4.124505 0.212492 5.587645 -28.877947 -0.058838 3.908706 60.547001 2.122839 13.038570 -10.074687 -0.567200 -0.000000 -70.576601 7.081944 2.017693 -1.620440 10.762694 1.491268 -71.425661 1.289651 -5.381586 58.128063 0.016282 3.260464 -10.009221 0.006700 0.000001 -40.182700
-1.696808 15.365961 -0.242042 -160.752788 85.156240 -130.286272 -13.151134 -0.209996 -4.071536 0.305027 5.332454 -28.939188 0.050609 3.916874 60.861421 2.178009 13.480620 -8.791041 -0.291301 0.000000 -70.790200 7.142234 2.069327 -1.637076 10.596944 1.608756 -71.243096 1.189557 -5.387842 58.828313 -0.118109 2.669783 -10.630490 -0.000500 0.000000 -40.209800
-1.582137 15.364356 -0.215467 -162.987699 84.820953 -132.430800 -13.117199 -0.202135 -4.016064 0.372786 5.032229 -29.040902 0.160972 3.921470 61.196098 2.246954 13.989582 -7.504262 0.002000 0.000001 -70.344200 7.202782 2.122738 -1.659563 10.413860 1.697288 -71.031439 1.095876 -5.390503 59.468564 -0.263235 2.030512 -11.264808 0.004600 0.000000 -40.280400
-1.470516 15.365831 -0.190503 -165.213080 84.438071 -134.567152 -13.082196 -0.205703 -3.960681 0.419975 4.706285 -29.185562 0.269157 3.924015 61.556304 2.328752 14.561416 -6.262809 0.306100 -0.000000 -69.073500 7.260233 2.173638 -1.691145 10.231260 1.746559 -70.783164 1.013523 -5.390420 60.042565 -0.416224 1.365508 -11.934671 0.023600 0.000000 -40.301700
-1.361941 15.370457 -0.167227 -167.360934 84.009849 -136.629838 -13.048570 -0.220943 -3.907644 0.447645 4.373110 -29.376787 0.371742 3.926239 61.945804 2.421968 15.190971 -5.128994 0.609100 -0.000000 -66.851100 7.312551 2.218999 -1.732669 10.060357 1.750792 -70.492244 0.945925 -5.387558 60.539644 -0.573686 0.696334 -12.646021 0.058000 -0.000000 -40.249901
-1.256345 15.378172 -0.145601 -169.383203 83.539759 -138.573164 -13.017959 -0.247252 -3.859313 0.455998 4.052290 -29.618043 0.465612 3.930151 62.367246 2.524439 15.870112 -4.169440 0.894900 -0.000000 -63.608900 7.358774 2.256656 -1.783819 9.908865 1.706989 -70.155176 0.895005 -5.381830 60.952160 -0.731826 0.043564 -13.394439 0.108500 -0.000001 -40.111700
-1.153522 15.388817 -0.125588 -171.249808 83.032290 -140.368025 -12.991252 -0.283508 -3.817741 0.445149 3.762454 -29.912551 0.548252 3.937688 62.820822 2.633690 16.588561 -3.448791 1.143800 0.000000 -59.352200 7.398796 2.285023 -1.843142 9.781453 1.615509 -69.771085 0.861258 -5.373059 61.275482 -0.886744 -0.574884 -14.166255 0.174400 0.000000 -39.883600
